<svg width="23" height="28" viewBox="0 0 23 28" fill="none" xmlns="http://www.w3.org/2000/svg">
<path d="M7.08333 27.625C5.12361 27.625 3.45336 26.9341 2.07258 25.5524C0.691806 24.1707 0.000945412 22.5004 9.67009e-07 20.5417C-0.000943478 18.5829 0.689918 16.9126 2.07258 15.5309C3.45525 14.1492 5.1255 13.4583 7.08333 13.4583V16.2917C5.90278 16.2917 4.89931 16.7049 4.07292 17.5313C3.24653 18.3576 2.83333 19.3611 2.83333 20.5417C2.83333 21.7222 3.24653 22.7257 4.07292 23.5521C4.89931 24.3785 5.90278 24.7917 7.08333 24.7917C8.26389 24.7917 9.26736 24.3785 10.0938 23.5521C10.9201 22.7257 11.3333 21.7222 11.3333 20.5417H14.1667C14.1667 22.5014 13.4758 24.1721 12.0941 25.5538C10.7124 26.9356 9.04211 27.6259 7.08333 27.625ZM19.8333 26.2083V19.125H11.3333C10.2944 19.125 9.49167 18.6825 8.925 17.7976C8.35834 16.9126 8.2875 15.9857 8.7125 15.0167L11.3333 9.20834H8.11042L7.26042 11.4042L4.53333 10.625L5.525 8.075C5.7375 7.53195 6.086 7.11261 6.5705 6.817C7.055 6.52139 7.58011 6.37406 8.14583 6.375H15.5125C16.575 6.375 17.3839 6.80614 17.9393 7.66842C18.4946 8.5307 18.5593 9.44539 18.1333 10.4125L15.7958 15.5833H19.8333C20.6125 15.5833 21.2798 15.861 21.8351 16.4163C22.3904 16.9717 22.6676 17.6384 22.6667 18.4167V26.2083H19.8333ZM16.4163 4.83509C15.861 4.27975 15.5833 3.6125 15.5833 2.83334C15.5833 2.05417 15.861 1.38739 16.4163 0.833002C16.9717 0.278614 17.6384 0.000946846 18.4167 2.40113e-06C19.1949 -0.000942043 19.8621 0.276725 20.4184 0.833002C20.9747 1.38928 21.2519 2.05606 21.25 2.83334C21.2481 3.61061 20.9709 4.27786 20.4184 4.83509C19.8659 5.39231 19.1987 5.6695 18.4167 5.66667C17.6347 5.66384 16.9679 5.38664 16.4163 4.83509Z" fill="black"/>
</svg>
