<svg width="15" height="14" viewBox="0 0 15 14" fill="none" xmlns="http://www.w3.org/2000/svg">
<path d="M0.777778 14V10.6944L11.025 0.466667C11.1806 0.311111 11.3556 0.194445 11.55 0.116667C11.7444 0.038889 11.9389 0 12.1333 0C12.3407 0 12.5386 0.038889 12.7268 0.116667C12.915 0.194445 13.0801 0.311111 13.2222 0.466667L14.3111 1.55556C14.4667 1.69815 14.5833 1.86356 14.6611 2.05178C14.7389 2.24 14.7778 2.43756 14.7778 2.64444C14.7778 2.83889 14.7389 3.03333 14.6611 3.22778C14.5833 3.42222 14.4667 3.59722 14.3111 3.75278L4.08333 14H0.777778ZM2.33333 12.4444H3.42222L11.0639 4.82222L10.5194 4.25833L9.95556 3.71389L2.33333 11.3556V12.4444ZM10.5194 4.25833L9.95556 3.71389L11.0639 4.82222L10.5194 4.25833ZM8.55556 14C9.51482 14 10.4028 13.7602 11.2194 13.2806C12.0361 12.8009 12.4444 12.1333 12.4444 11.2778C12.4444 10.8111 12.3213 10.4093 12.075 10.0722C11.8287 9.73518 11.4981 9.44352 11.0833 9.19722L9.93611 10.3444C10.2343 10.4741 10.4676 10.6167 10.6361 10.7722C10.8046 10.9278 10.8889 11.0963 10.8889 11.2778C10.8889 11.5759 10.6522 11.845 10.1788 12.0851C9.70537 12.3252 9.1643 12.445 8.55556 12.4444C8.33519 12.4444 8.15059 12.5191 8.00178 12.6684C7.85296 12.8178 7.7783 13.0024 7.77778 13.2222C7.77726 13.4421 7.85193 13.6269 8.00178 13.7768C8.15163 13.9266 8.33622 14.001 8.55556 14ZM1.225 8.05L2.39167 6.88333C2.13241 6.77963 1.92811 6.67281 1.77878 6.56289C1.62944 6.45296 1.55504 6.33941 1.55556 6.22222C1.55556 6.06667 1.67222 5.91111 1.90556 5.75556C2.13889 5.6 2.63148 5.36019 3.38333 5.03611C4.52407 4.54352 5.28241 4.0963 5.65833 3.69444C6.03426 3.29259 6.22222 2.83889 6.22222 2.33333C6.22222 1.62037 5.93704 1.05337 5.36667 0.632333C4.7963 0.211296 4.04444 0.000518519 3.11111 0C2.52778 0 2.00589 0.103704 1.54544 0.311111C1.085 0.518519 0.731889 0.771296 0.486111 1.06944C0.343519 1.23796 0.285185 1.42593 0.311111 1.63333C0.337037 1.84074 0.434259 2.00926 0.602778 2.13889C0.771296 2.28148 0.959259 2.33981 1.16667 2.31389C1.37407 2.28796 1.54907 2.2037 1.69167 2.06111C1.87315 1.87963 2.07407 1.75 2.29444 1.67222C2.51481 1.59444 2.78704 1.55556 3.11111 1.55556C3.64259 1.55556 4.03485 1.63333 4.28789 1.78889C4.54093 1.94444 4.66719 2.12593 4.66667 2.33333C4.66667 2.51481 4.55337 2.67996 4.32678 2.82878C4.10018 2.97759 3.5783 3.24022 2.76111 3.61667C1.72407 4.07037 1.00463 4.48207 0.602778 4.85178C0.200926 5.22148 0 5.6783 0 6.22222C0 6.63704 0.110185 6.99041 0.330556 7.28233C0.550926 7.57426 0.849074 7.83015 1.225 8.05Z" fill="black"/>
</svg>
